%TF.GenerationSoftware,KiCad,Pcbnew,7.0.10-1.fc39*%
%TF.CreationDate,2024-01-29T11:06:26+02:00*%
%TF.ProjectId,AppleVGA,4170706c-6556-4474-912e-6b696361645f,B*%
%TF.SameCoordinates,Original*%
%TF.FileFunction,Soldermask,Bot*%
%TF.FilePolarity,Negative*%
%FSLAX46Y46*%
G04 Gerber Fmt 4.6, Leading zero omitted, Abs format (unit mm)*
G04 Created by KiCad (PCBNEW 7.0.10-1.fc39) date 2024-01-29 11:06:26*
%MOMM*%
%LPD*%
G01*
G04 APERTURE LIST*
G04 Aperture macros list*
%AMRoundRect*
0 Rectangle with rounded corners*
0 $1 Rounding radius*
0 $2 $3 $4 $5 $6 $7 $8 $9 X,Y pos of 4 corners*
0 Add a 4 corners polygon primitive as box body*
4,1,4,$2,$3,$4,$5,$6,$7,$8,$9,$2,$3,0*
0 Add four circle primitives for the rounded corners*
1,1,$1+$1,$2,$3*
1,1,$1+$1,$4,$5*
1,1,$1+$1,$6,$7*
1,1,$1+$1,$8,$9*
0 Add four rect primitives between the rounded corners*
20,1,$1+$1,$2,$3,$4,$5,0*
20,1,$1+$1,$4,$5,$6,$7,0*
20,1,$1+$1,$6,$7,$8,$9,0*
20,1,$1+$1,$8,$9,$2,$3,0*%
G04 Aperture macros list end*
%ADD10C,0.050000*%
%ADD11RoundRect,0.381000X0.381000X3.175000X-0.381000X3.175000X-0.381000X-3.175000X0.381000X-3.175000X0*%
%ADD12O,1.700000X1.700000*%
%ADD13R,1.700000X1.700000*%
%ADD14RoundRect,0.250000X-0.600000X-0.600000X0.600000X-0.600000X0.600000X0.600000X-0.600000X0.600000X0*%
%ADD15C,1.700000*%
%ADD16C,0.500000*%
%ADD17C,4.200000*%
%ADD18C,1.600000*%
%ADD19C,2.500000*%
G04 APERTURE END LIST*
D10*
%TO.C,J1*%
X120015000Y-133350000D02*
X184785000Y-133350000D01*
X184785000Y-133350000D02*
X184785000Y-140843000D01*
X184785000Y-140843000D02*
X120015000Y-140843000D01*
X120015000Y-140843000D02*
X120015000Y-133350000D01*
G36*
X120015000Y-133350000D02*
G01*
X184785000Y-133350000D01*
X184785000Y-140843000D01*
X120015000Y-140843000D01*
X120015000Y-133350000D01*
G37*
%TD*%
D11*
%TO.C,J1*%
X182880000Y-136525000D03*
X180340000Y-136525000D03*
X177800000Y-136525000D03*
X175260000Y-136525000D03*
X172720000Y-136525000D03*
X170180000Y-136525000D03*
X167640000Y-136525000D03*
X165100000Y-136525000D03*
X162560000Y-136525000D03*
X160020000Y-136525000D03*
X157480000Y-136525000D03*
X154940000Y-136525000D03*
X152400000Y-136525000D03*
X149860000Y-136525000D03*
X147320000Y-136525000D03*
X144780000Y-136525000D03*
X142240000Y-136525000D03*
X139700000Y-136525000D03*
X137160000Y-136525000D03*
X134620000Y-136525000D03*
X132080000Y-136525000D03*
X129540000Y-136525000D03*
X127000000Y-136525000D03*
X124460000Y-136525000D03*
X121920000Y-136525000D03*
%TD*%
D12*
%TO.C,U6*%
X83972400Y-96824800D03*
X86512400Y-96824800D03*
D13*
X89052400Y-96824800D03*
D12*
X91592400Y-96824800D03*
X94132400Y-96824800D03*
X96672400Y-96824800D03*
X99212400Y-96824800D03*
D13*
X101752400Y-96824800D03*
D12*
X104292400Y-96824800D03*
X106832400Y-96824800D03*
X109372400Y-96824800D03*
X111912400Y-96824800D03*
D13*
X114452400Y-96824800D03*
D12*
X116992400Y-96824800D03*
X119532400Y-96824800D03*
X122072400Y-96824800D03*
X124612400Y-96824800D03*
D13*
X127152400Y-96824800D03*
D12*
X129692400Y-96824800D03*
X132232400Y-96824800D03*
X132232400Y-79044800D03*
X129692400Y-79044800D03*
D13*
X127152400Y-79044800D03*
D12*
X124612400Y-79044800D03*
X122072400Y-79044800D03*
X119532400Y-79044800D03*
X116992400Y-79044800D03*
D13*
X114452400Y-79044800D03*
D12*
X111912400Y-79044800D03*
X109372400Y-79044800D03*
X106832400Y-79044800D03*
X104292400Y-79044800D03*
D13*
X101752400Y-79044800D03*
D12*
X99212400Y-79044800D03*
X96672400Y-79044800D03*
X94132400Y-79044800D03*
X91592400Y-79044800D03*
D13*
X89052400Y-79044800D03*
D12*
X86512400Y-79044800D03*
X83972400Y-79044800D03*
%TD*%
D14*
%TO.C,J2*%
X150317200Y-86029800D03*
D15*
X152857200Y-86029800D03*
X150317200Y-88569800D03*
X152857200Y-88569800D03*
X150317200Y-91109800D03*
X152857200Y-91109800D03*
X150317200Y-93649800D03*
X152857200Y-93649800D03*
%TD*%
D13*
%TO.C,TP1*%
X190500000Y-128270000D03*
D12*
X190500000Y-130810000D03*
%TD*%
D16*
%TO.C,mouse-bite-1mm-slot*%
X164502400Y-76623528D03*
X166002400Y-76623528D03*
X164252400Y-75823528D03*
X166252400Y-75823528D03*
X164252400Y-75123528D03*
X166252400Y-75123528D03*
X164502400Y-74323528D03*
X166002400Y-74323528D03*
%TD*%
%TO.C,mouse-bite-1mm-slot*%
X164518400Y-91619200D03*
X166018400Y-91619200D03*
X164268400Y-90819200D03*
X166268400Y-90819200D03*
X164268400Y-90119200D03*
X166268400Y-90119200D03*
X164518400Y-89319200D03*
X166018400Y-89319200D03*
%TD*%
D13*
%TO.C,TP2*%
X165100000Y-128270000D03*
D12*
X167640000Y-128270000D03*
X170180000Y-128270000D03*
X172720000Y-128270000D03*
%TD*%
D17*
%TO.C,J4*%
X184099200Y-94748400D03*
X184099200Y-69748400D03*
D18*
X181559200Y-77930400D03*
X181559200Y-80216400D03*
X181559200Y-82502400D03*
X181559200Y-84788400D03*
X181559200Y-87074400D03*
X184099200Y-76787400D03*
X184099200Y-79073400D03*
X184099200Y-81359400D03*
X184099200Y-83645400D03*
X184099200Y-85931400D03*
X186639200Y-77930400D03*
X186639200Y-80216400D03*
X186639200Y-82502400D03*
X186639200Y-84788400D03*
X186639200Y-87074400D03*
%TD*%
D14*
%TO.C,J3*%
X171450000Y-78740000D03*
D15*
X173990000Y-78740000D03*
X171450000Y-81280000D03*
X173990000Y-81280000D03*
X171450000Y-83820000D03*
X173990000Y-83820000D03*
X171450000Y-86360000D03*
X173990000Y-86360000D03*
%TD*%
D19*
%TO.C,REF\u002A\u002A*%
X161417000Y-69392800D03*
%TD*%
M02*
