M48
; DRILL file {KiCad 7.0.10-1.fc39} date E 29 jaan  2024 11:06:29
; FORMAT={-:-/ absolute / inch / decimal}
; #@! TF.CreationDate,2024-01-29T11:06:29+02:00
; #@! TF.GenerationSoftware,Kicad,Pcbnew,7.0.10-1.fc39
; #@! TF.FileFunction,Plated,1,2,PTH
FMAT,2
INCH
; #@! TA.AperFunction,Plated,PTH,ViaDrill
T1C0.0138
; #@! TA.AperFunction,Plated,PTH,ViaDrill
T2C0.0236
; #@! TA.AperFunction,Plated,PTH,ComponentDrill
T3C0.0394
; #@! TA.AperFunction,Plated,PTH,ComponentDrill
T4C0.0402
; #@! TA.AperFunction,Plated,PTH,ComponentDrill
T5C0.0472
; #@! TA.AperFunction,Plated,PTH,ComponentDrill
T6C0.1260
%
G90
G05
T1
X3.374Y-5.02
X3.424Y-4.248
X3.424Y-5.02
X3.474Y-5.02
X3.474Y-4.2202
X3.524Y-4.194
X3.524Y-5.02
X3.574Y-4.1641
X3.574Y-5.02
X3.624Y-4.1357
X3.624Y-5.02
X3.674Y-4.106
X3.674Y-5.02
X3.724Y-5.02
X3.724Y-4.076
X3.776Y-4.046
X3.914Y-4.724
X3.914Y-4.638
X4.222Y-4.25
X4.272Y-4.2237
X4.322Y-4.206
X4.372Y-4.184
X4.422Y-4.166
X4.472Y-4.146
X4.522Y-4.126
X4.572Y-4.106
X4.607Y-3.956
X4.707Y-3.956
X4.712Y-4.636
X4.712Y-4.7244
X4.738Y-4.076
X4.74Y-4.388
X4.7754Y-4.076
X4.8037Y-3.9459
X4.81Y-4.076
X4.8446Y-4.076
X4.878Y-4.386
X4.907Y-3.9437
X5.02Y-4.2619
X5.07Y-4.2619
X5.12Y-4.2619
X5.17Y-4.2619
X5.22Y-4.2619
X5.27Y-4.2619
X5.32Y-4.2619
X5.37Y-4.2619
X5.496Y-4.638
X5.496Y-4.7244
X6.118Y-4.7216
X6.118Y-4.836
X6.7Y-5.13
X6.9512Y-3.1032
X6.9512Y-3.2032
X6.9512Y-3.3032
X6.9512Y-3.4032
X7.0Y-5.17
X7.0512Y-3.1032
X7.0512Y-3.2032
X7.0512Y-3.3032
X7.0512Y-3.4032
X7.1Y-5.172
T2
X3.298Y-4.33
X3.892Y-4.882
X4.102Y-4.328
X4.706Y-4.882
X5.486Y-4.33
X5.7131Y-4.3289
X5.768Y-4.784
X5.818Y-4.784
X5.87Y-4.784
X5.918Y-4.784
X6.047Y-2.997
X6.278Y-4.8839
X6.279Y-4.598
X6.2811Y-4.3289
X6.31Y-4.818
X6.48Y-4.726
X6.606Y-4.42
X6.636Y-4.728
T3
X5.918Y-3.387
X5.918Y-3.487
X5.918Y-3.587
X5.918Y-3.687
X6.018Y-3.387
X6.018Y-3.487
X6.018Y-3.587
X6.018Y-3.687
X6.5Y-5.05
X6.6Y-5.05
X6.7Y-5.05
X6.75Y-3.1
X6.75Y-3.2
X6.75Y-3.3
X6.75Y-3.4
X6.8Y-5.05
X6.85Y-3.1
X6.85Y-3.2
X6.85Y-3.3
X6.85Y-3.4
X7.5Y-5.05
X7.5Y-5.15
T4
X3.306Y-3.112
X3.306Y-3.812
X3.406Y-3.112
X3.406Y-3.812
X3.506Y-3.112
X3.506Y-3.812
X3.606Y-3.112
X3.606Y-3.812
X3.706Y-3.112
X3.706Y-3.812
X3.806Y-3.112
X3.806Y-3.812
X3.906Y-3.112
X3.906Y-3.812
X4.006Y-3.112
X4.006Y-3.812
X4.106Y-3.112
X4.106Y-3.812
X4.206Y-3.112
X4.206Y-3.812
X4.306Y-3.112
X4.306Y-3.812
X4.406Y-3.112
X4.406Y-3.812
X4.506Y-3.112
X4.506Y-3.812
X4.606Y-3.112
X4.606Y-3.812
X4.706Y-3.112
X4.706Y-3.812
X4.806Y-3.112
X4.806Y-3.812
X4.906Y-3.112
X4.906Y-3.812
X5.006Y-3.112
X5.006Y-3.812
X5.106Y-3.112
X5.106Y-3.812
X5.206Y-3.112
X5.206Y-3.812
T5
X7.148Y-3.0681
X7.148Y-3.1581
X7.148Y-3.2481
X7.148Y-3.3381
X7.148Y-3.4281
X7.248Y-3.0231
X7.248Y-3.1131
X7.248Y-3.2031
X7.248Y-3.2931
X7.248Y-3.3831
X7.348Y-3.0681
X7.348Y-3.1581
X7.348Y-3.2481
X7.348Y-3.3381
X7.348Y-3.4281
T6
X7.248Y-2.746
X7.248Y-3.7303
M30
