%TF.GenerationSoftware,KiCad,Pcbnew,7.0.10-1.fc39*%
%TF.CreationDate,2024-01-28T21:12:05+02:00*%
%TF.ProjectId,AppleVGA,4170706c-6556-4474-912e-6b696361645f,B*%
%TF.SameCoordinates,Original*%
%TF.FileFunction,Profile,NP*%
%FSLAX46Y46*%
G04 Gerber Fmt 4.6, Leading zero omitted, Abs format (unit mm)*
G04 Created by KiCad (PCBNEW 7.0.10-1.fc39) date 2024-01-28 21:12:05*
%MOMM*%
%LPD*%
G01*
G04 APERTURE LIST*
%TA.AperFunction,Profile*%
%ADD10C,0.100000*%
%TD*%
G04 APERTURE END LIST*
D10*
X166369107Y-78270522D02*
G75*
G03*
X164182038Y-78225854I-1093088J44195D01*
G01*
X166369107Y-93270522D02*
G75*
G03*
X164182038Y-93225854I-1093088J44195D01*
G01*
X164182931Y-87682132D02*
G75*
G03*
X166370000Y-87726800I1093088J-44195D01*
G01*
X166369107Y-93270522D02*
X166370000Y-96755001D01*
X166369107Y-78270522D02*
X166370000Y-87726800D01*
X166370000Y-67945000D02*
X166370000Y-72726800D01*
X164182931Y-67945000D02*
X164182931Y-72682132D01*
X164182038Y-78225854D02*
X164182931Y-87682132D01*
X164182931Y-72682132D02*
G75*
G03*
X166370000Y-72726800I1093088J-44195D01*
G01*
X193040000Y-132715000D02*
X193040000Y-117678200D01*
X162915600Y-66675000D02*
X81153000Y-66675000D01*
X81280000Y-133350000D02*
X120015000Y-133350000D01*
X184785000Y-133350000D02*
X192405000Y-133350000D01*
X193040000Y-98025001D02*
X167640000Y-98025001D01*
X164182931Y-100124131D02*
X180360187Y-116301387D01*
X166370000Y-96755001D02*
X167640000Y-98025001D01*
X81153000Y-66675000D02*
X80645000Y-67183000D01*
X164182038Y-93225854D02*
X164182931Y-100124131D01*
X162910244Y-66675000D02*
X164182931Y-67945000D01*
X193040000Y-66675000D02*
X193040000Y-98025001D01*
X180360187Y-116301387D02*
X191668400Y-116301387D01*
X167640000Y-66675000D02*
X193040000Y-66675000D01*
X166370000Y-67945000D02*
X167640000Y-66675000D01*
X80645000Y-132715000D02*
X81280000Y-133350000D01*
X192405000Y-133350000D02*
X193040000Y-132715000D01*
X80645000Y-67183000D02*
X80645000Y-132715000D01*
X193041171Y-117674158D02*
X191668400Y-116301387D01*
%TO.C,J1*%
X120015000Y-140208000D02*
X120015000Y-133350000D01*
X120650000Y-140843000D02*
X120015000Y-140208000D01*
X184150000Y-140843000D02*
X120650000Y-140843000D01*
X184150000Y-140843000D02*
X184785000Y-140208000D01*
X184785000Y-133350000D02*
X184785000Y-140208000D01*
%TD*%
M02*
