%TF.GenerationSoftware,KiCad,Pcbnew,7.0.10-1.fc39*%
%TF.CreationDate,2024-01-29T11:06:26+02:00*%
%TF.ProjectId,AppleVGA,4170706c-6556-4474-912e-6b696361645f,B*%
%TF.SameCoordinates,Original*%
%TF.FileFunction,Soldermask,Top*%
%TF.FilePolarity,Negative*%
%FSLAX46Y46*%
G04 Gerber Fmt 4.6, Leading zero omitted, Abs format (unit mm)*
G04 Created by KiCad (PCBNEW 7.0.10-1.fc39) date 2024-01-29 11:06:26*
%MOMM*%
%LPD*%
G01*
G04 APERTURE LIST*
G04 Aperture macros list*
%AMRoundRect*
0 Rectangle with rounded corners*
0 $1 Rounding radius*
0 $2 $3 $4 $5 $6 $7 $8 $9 X,Y pos of 4 corners*
0 Add a 4 corners polygon primitive as box body*
4,1,4,$2,$3,$4,$5,$6,$7,$8,$9,$2,$3,0*
0 Add four circle primitives for the rounded corners*
1,1,$1+$1,$2,$3*
1,1,$1+$1,$4,$5*
1,1,$1+$1,$6,$7*
1,1,$1+$1,$8,$9*
0 Add four rect primitives between the rounded corners*
20,1,$1+$1,$2,$3,$4,$5,0*
20,1,$1+$1,$4,$5,$6,$7,0*
20,1,$1+$1,$6,$7,$8,$9,0*
20,1,$1+$1,$8,$9,$2,$3,0*%
%AMRotRect*
0 Rectangle, with rotation*
0 The origin of the aperture is its center*
0 $1 length*
0 $2 width*
0 $3 Rotation angle, in degrees counterclockwise*
0 Add horizontal line*
21,1,$1,$2,0,0,$3*%
%AMFreePoly0*
4,1,19,0.550000,-0.750000,0.000000,-0.750000,0.000000,-0.744912,-0.071157,-0.744911,-0.207708,-0.704816,-0.327430,-0.627875,-0.420627,-0.520320,-0.479746,-0.390866,-0.500000,-0.250000,-0.500000,0.250000,-0.479746,0.390866,-0.420627,0.520320,-0.327430,0.627875,-0.207708,0.704816,-0.071157,0.744911,0.000000,0.744912,0.000000,0.750000,0.550000,0.750000,0.550000,-0.750000,0.550000,-0.750000,
$1*%
%AMFreePoly1*
4,1,19,0.000000,0.744912,0.071157,0.744911,0.207708,0.704816,0.327430,0.627875,0.420627,0.520320,0.479746,0.390866,0.500000,0.250000,0.500000,-0.250000,0.479746,-0.390866,0.420627,-0.520320,0.327430,-0.627875,0.207708,-0.704816,0.071157,-0.744911,0.000000,-0.744912,0.000000,-0.750000,-0.550000,-0.750000,-0.550000,0.750000,0.000000,0.750000,0.000000,0.744912,0.000000,0.744912,
$1*%
G04 Aperture macros list end*
%ADD10C,0.050000*%
%ADD11RoundRect,0.381000X0.381000X3.175000X-0.381000X3.175000X-0.381000X-3.175000X0.381000X-3.175000X0*%
%ADD12RoundRect,0.237500X-0.250000X-0.237500X0.250000X-0.237500X0.250000X0.237500X-0.250000X0.237500X0*%
%ADD13O,1.700000X1.700000*%
%ADD14R,1.700000X3.500000*%
%ADD15R,1.700000X1.700000*%
%ADD16RoundRect,0.237500X0.237500X-0.287500X0.237500X0.287500X-0.237500X0.287500X-0.237500X-0.287500X0*%
%ADD17RoundRect,0.187500X-0.312500X-0.187500X0.312500X-0.187500X0.312500X0.187500X-0.312500X0.187500X0*%
%ADD18RoundRect,0.150000X-0.150000X0.875000X-0.150000X-0.875000X0.150000X-0.875000X0.150000X0.875000X0*%
%ADD19RoundRect,0.237500X0.300000X0.237500X-0.300000X0.237500X-0.300000X-0.237500X0.300000X-0.237500X0*%
%ADD20RoundRect,0.250000X-0.600000X-0.600000X0.600000X-0.600000X0.600000X0.600000X-0.600000X0.600000X0*%
%ADD21C,1.700000*%
%ADD22RoundRect,0.237500X0.250000X0.237500X-0.250000X0.237500X-0.250000X-0.237500X0.250000X-0.237500X0*%
%ADD23FreePoly0,315.000000*%
%ADD24RotRect,1.000000X1.500000X315.000000*%
%ADD25FreePoly1,315.000000*%
%ADD26C,0.500000*%
%ADD27RoundRect,0.150000X-0.587500X-0.150000X0.587500X-0.150000X0.587500X0.150000X-0.587500X0.150000X0*%
%ADD28C,4.200000*%
%ADD29C,1.600000*%
G04 APERTURE END LIST*
D10*
%TO.C,J1*%
X120015000Y-133350000D02*
X184785000Y-133350000D01*
X184785000Y-133350000D02*
X184785000Y-140843000D01*
X184785000Y-140843000D02*
X120015000Y-140843000D01*
X120015000Y-140843000D02*
X120015000Y-133350000D01*
G36*
X120015000Y-133350000D02*
G01*
X184785000Y-133350000D01*
X184785000Y-140843000D01*
X120015000Y-140843000D01*
X120015000Y-133350000D01*
G37*
%TD*%
D11*
%TO.C,J1*%
X121920000Y-136525000D03*
X124460000Y-136525000D03*
X127000000Y-136525000D03*
X129540000Y-136525000D03*
X132080000Y-136525000D03*
X134620000Y-136525000D03*
X137160000Y-136525000D03*
X139700000Y-136525000D03*
X142240000Y-136525000D03*
X144780000Y-136525000D03*
X147320000Y-136525000D03*
X149860000Y-136525000D03*
X152400000Y-136525000D03*
X154940000Y-136525000D03*
X157480000Y-136525000D03*
X160020000Y-136525000D03*
X162560000Y-136525000D03*
X165100000Y-136525000D03*
X167640000Y-136525000D03*
X170180000Y-136525000D03*
X172720000Y-136525000D03*
X175260000Y-136525000D03*
X177800000Y-136525000D03*
X180340000Y-136525000D03*
X182880000Y-136525000D03*
%TD*%
D12*
%TO.C,R6*%
X139192000Y-82867500D03*
X141017000Y-82867500D03*
%TD*%
%TO.C,R7*%
X139192000Y-85598000D03*
X141017000Y-85598000D03*
%TD*%
%TO.C,R14*%
X139192000Y-74676000D03*
X141017000Y-74676000D03*
%TD*%
%TO.C,R13*%
X139192000Y-71945500D03*
X141017000Y-71945500D03*
%TD*%
%TO.C,R11*%
X139192000Y-96520000D03*
X141017000Y-96520000D03*
%TD*%
%TO.C,R12*%
X139192000Y-99250500D03*
X141017000Y-99250500D03*
%TD*%
%TO.C,R10*%
X139192000Y-93789500D03*
X141017000Y-93789500D03*
%TD*%
%TO.C,R8*%
X139192000Y-88328500D03*
X141017000Y-88328500D03*
%TD*%
%TO.C,R9*%
X139192000Y-91059000D03*
X141017000Y-91059000D03*
%TD*%
D13*
%TO.C,U6*%
X83972400Y-96824800D03*
D14*
X83972400Y-97724800D03*
D13*
X86512400Y-96824800D03*
D14*
X86512400Y-97724800D03*
D15*
X89052400Y-96824800D03*
D14*
X89052400Y-97724800D03*
D13*
X91592400Y-96824800D03*
D14*
X91592400Y-97724800D03*
D13*
X94132400Y-96824800D03*
D14*
X94132400Y-97724800D03*
D13*
X96672400Y-96824800D03*
D14*
X96672400Y-97724800D03*
D13*
X99212400Y-96824800D03*
D14*
X99212400Y-97724800D03*
D15*
X101752400Y-96824800D03*
D14*
X101752400Y-97724800D03*
D13*
X104292400Y-96824800D03*
D14*
X104292400Y-97724800D03*
D13*
X106832400Y-96824800D03*
D14*
X106832400Y-97724800D03*
D13*
X109372400Y-96824800D03*
D14*
X109372400Y-97724800D03*
D13*
X111912400Y-96824800D03*
D14*
X111912400Y-97724800D03*
D15*
X114452400Y-96824800D03*
D14*
X114452400Y-97724800D03*
D13*
X116992400Y-96824800D03*
D14*
X116992400Y-97724800D03*
D13*
X119532400Y-96824800D03*
D14*
X119532400Y-97724800D03*
D13*
X122072400Y-96824800D03*
D14*
X122072400Y-97724800D03*
D13*
X124612400Y-96824800D03*
D14*
X124612400Y-97724800D03*
D15*
X127152400Y-96824800D03*
D14*
X127152400Y-97724800D03*
D13*
X129692400Y-96824800D03*
D14*
X129692400Y-97724800D03*
D13*
X132232400Y-96824800D03*
D14*
X132232400Y-97724800D03*
D13*
X132232400Y-79044800D03*
D14*
X132232400Y-78144800D03*
D13*
X129692400Y-79044800D03*
D14*
X129692400Y-78144800D03*
D15*
X127152400Y-79044800D03*
D14*
X127152400Y-78144800D03*
D13*
X124612400Y-79044800D03*
D14*
X124612400Y-78144800D03*
D13*
X122072400Y-79044800D03*
D14*
X122072400Y-78144800D03*
D13*
X119532400Y-79044800D03*
D14*
X119532400Y-78144800D03*
D13*
X116992400Y-79044800D03*
D14*
X116992400Y-78144800D03*
D15*
X114452400Y-79044800D03*
D14*
X114452400Y-78144800D03*
D13*
X111912400Y-79044800D03*
D14*
X111912400Y-78144800D03*
D13*
X109372400Y-79044800D03*
D14*
X109372400Y-78144800D03*
D13*
X106832400Y-79044800D03*
D14*
X106832400Y-78144800D03*
D13*
X104292400Y-79044800D03*
D14*
X104292400Y-78144800D03*
D15*
X101752400Y-79044800D03*
D14*
X101752400Y-78144800D03*
D13*
X99212400Y-79044800D03*
D14*
X99212400Y-78144800D03*
D13*
X96672400Y-79044800D03*
D14*
X96672400Y-78144800D03*
D13*
X94132400Y-79044800D03*
D14*
X94132400Y-78144800D03*
D13*
X91592400Y-79044800D03*
D14*
X91592400Y-78144800D03*
D15*
X89052400Y-79044800D03*
D14*
X89052400Y-78144800D03*
D13*
X86512400Y-79044800D03*
D14*
X86512400Y-78144800D03*
D13*
X83972400Y-79044800D03*
D14*
X83972400Y-78144800D03*
%TD*%
D16*
%TO.C,D1*%
X92760085Y-70956500D03*
X92760085Y-69206500D03*
%TD*%
D17*
%TO.C,SW1*%
X150514800Y-73090800D03*
X156514800Y-73090800D03*
X150514800Y-76840800D03*
X156514800Y-76840800D03*
%TD*%
D18*
%TO.C,U1*%
X137668000Y-109954800D03*
X136398000Y-109954800D03*
X135128000Y-109954800D03*
X133858000Y-109954800D03*
X132588000Y-109954800D03*
X131318000Y-109954800D03*
X130048000Y-109954800D03*
X128778000Y-109954800D03*
X127508000Y-109954800D03*
X126238000Y-109954800D03*
X126238000Y-119254800D03*
X127508000Y-119254800D03*
X128778000Y-119254800D03*
X130048000Y-119254800D03*
X131318000Y-119254800D03*
X132588000Y-119254800D03*
X133858000Y-119254800D03*
X135128000Y-119254800D03*
X136398000Y-119254800D03*
X137668000Y-119254800D03*
%TD*%
%TO.C,U3*%
X97129600Y-109954800D03*
X95859600Y-109954800D03*
X94589600Y-109954800D03*
X93319600Y-109954800D03*
X92049600Y-109954800D03*
X90779600Y-109954800D03*
X89509600Y-109954800D03*
X88239600Y-109954800D03*
X86969600Y-109954800D03*
X85699600Y-109954800D03*
X85699600Y-119254800D03*
X86969600Y-119254800D03*
X88239600Y-119254800D03*
X89509600Y-119254800D03*
X90779600Y-119254800D03*
X92049600Y-119254800D03*
X93319600Y-119254800D03*
X94589600Y-119254800D03*
X95859600Y-119254800D03*
X97129600Y-119254800D03*
%TD*%
%TO.C,U2*%
X117398800Y-109954800D03*
X116128800Y-109954800D03*
X114858800Y-109954800D03*
X113588800Y-109954800D03*
X112318800Y-109954800D03*
X111048800Y-109954800D03*
X109778800Y-109954800D03*
X108508800Y-109954800D03*
X107238800Y-109954800D03*
X105968800Y-109954800D03*
X105968800Y-119254800D03*
X107238800Y-119254800D03*
X108508800Y-119254800D03*
X109778800Y-119254800D03*
X111048800Y-119254800D03*
X112318800Y-119254800D03*
X113588800Y-119254800D03*
X114858800Y-119254800D03*
X116128800Y-119254800D03*
X117398800Y-119254800D03*
%TD*%
%TO.C,U4*%
X157937200Y-109954800D03*
X156667200Y-109954800D03*
X155397200Y-109954800D03*
X154127200Y-109954800D03*
X152857200Y-109954800D03*
X151587200Y-109954800D03*
X150317200Y-109954800D03*
X149047200Y-109954800D03*
X147777200Y-109954800D03*
X146507200Y-109954800D03*
X146507200Y-119254800D03*
X147777200Y-119254800D03*
X149047200Y-119254800D03*
X150317200Y-119254800D03*
X151587200Y-119254800D03*
X152857200Y-119254800D03*
X154127200Y-119254800D03*
X155397200Y-119254800D03*
X156667200Y-119254800D03*
X157937200Y-119254800D03*
%TD*%
D19*
%TO.C,C3*%
X102462500Y-124000000D03*
X100737500Y-124000000D03*
%TD*%
%TO.C,C1*%
X142862500Y-124000000D03*
X141137500Y-124000000D03*
%TD*%
D20*
%TO.C,J2*%
X150317200Y-86029800D03*
D21*
X152857200Y-86029800D03*
X150317200Y-88569800D03*
X152857200Y-88569800D03*
X150317200Y-91109800D03*
X152857200Y-91109800D03*
X150317200Y-93649800D03*
X152857200Y-93649800D03*
%TD*%
D12*
%TO.C,R5*%
X139192000Y-80137000D03*
X141017000Y-80137000D03*
%TD*%
%TO.C,R4*%
X139192000Y-77406500D03*
X141017000Y-77406500D03*
%TD*%
D22*
%TO.C,R1*%
X142912500Y-120000000D03*
X141087500Y-120000000D03*
%TD*%
D23*
%TO.C,JP1*%
X166568361Y-107995961D03*
D24*
X167487600Y-108915200D03*
X168406839Y-109834439D03*
D25*
X169326078Y-110753678D03*
%TD*%
D22*
%TO.C,R15*%
X162708600Y-120000000D03*
X160883600Y-120000000D03*
%TD*%
D15*
%TO.C,TP1*%
X190500000Y-128270000D03*
D13*
X190500000Y-130810000D03*
%TD*%
D26*
%TO.C,mouse-bite-1mm-slot*%
X164502400Y-76623528D03*
X166002400Y-76623528D03*
X164252400Y-75823528D03*
X166252400Y-75823528D03*
X164252400Y-75123528D03*
X166252400Y-75123528D03*
X164502400Y-74323528D03*
X166002400Y-74323528D03*
%TD*%
D19*
%TO.C,C2*%
X123037600Y-124000000D03*
X121312600Y-124000000D03*
%TD*%
D27*
%TO.C,Q1*%
X87200500Y-69154000D03*
X87200500Y-71054000D03*
X89075500Y-70104000D03*
%TD*%
D26*
%TO.C,mouse-bite-1mm-slot*%
X164518400Y-91619200D03*
X166018400Y-91619200D03*
X164268400Y-90819200D03*
X166268400Y-90819200D03*
X164268400Y-90119200D03*
X166268400Y-90119200D03*
X164518400Y-89319200D03*
X166018400Y-89319200D03*
%TD*%
D15*
%TO.C,TP2*%
X165100000Y-128270000D03*
D13*
X167640000Y-128270000D03*
X170180000Y-128270000D03*
X172720000Y-128270000D03*
%TD*%
D22*
%TO.C,R3*%
X102512500Y-120000000D03*
X100687500Y-120000000D03*
%TD*%
D19*
%TO.C,C4*%
X162609700Y-124000000D03*
X160884700Y-124000000D03*
%TD*%
D28*
%TO.C,J4*%
X184099200Y-94748400D03*
X184099200Y-69748400D03*
D29*
X181559200Y-77930400D03*
X181559200Y-80216400D03*
X181559200Y-82502400D03*
X181559200Y-84788400D03*
X181559200Y-87074400D03*
X184099200Y-76787400D03*
X184099200Y-79073400D03*
X184099200Y-81359400D03*
X184099200Y-83645400D03*
X184099200Y-85931400D03*
X186639200Y-77930400D03*
X186639200Y-80216400D03*
X186639200Y-82502400D03*
X186639200Y-84788400D03*
X186639200Y-87074400D03*
%TD*%
D20*
%TO.C,J3*%
X171450000Y-78740000D03*
D21*
X173990000Y-78740000D03*
X171450000Y-81280000D03*
X173990000Y-81280000D03*
X171450000Y-83820000D03*
X173990000Y-83820000D03*
X171450000Y-86360000D03*
X173990000Y-86360000D03*
%TD*%
D22*
%TO.C,R2*%
X123037600Y-120000000D03*
X121212600Y-120000000D03*
%TD*%
M02*
