%TF.GenerationSoftware,KiCad,Pcbnew,7.0.10-1.fc39*%
%TF.CreationDate,2024-01-28T21:12:04+02:00*%
%TF.ProjectId,AppleVGA,4170706c-6556-4474-912e-6b696361645f,B*%
%TF.SameCoordinates,Original*%
%TF.FileFunction,Paste,Top*%
%TF.FilePolarity,Positive*%
%FSLAX46Y46*%
G04 Gerber Fmt 4.6, Leading zero omitted, Abs format (unit mm)*
G04 Created by KiCad (PCBNEW 7.0.10-1.fc39) date 2024-01-28 21:12:04*
%MOMM*%
%LPD*%
G01*
G04 APERTURE LIST*
G04 Aperture macros list*
%AMRoundRect*
0 Rectangle with rounded corners*
0 $1 Rounding radius*
0 $2 $3 $4 $5 $6 $7 $8 $9 X,Y pos of 4 corners*
0 Add a 4 corners polygon primitive as box body*
4,1,4,$2,$3,$4,$5,$6,$7,$8,$9,$2,$3,0*
0 Add four circle primitives for the rounded corners*
1,1,$1+$1,$2,$3*
1,1,$1+$1,$4,$5*
1,1,$1+$1,$6,$7*
1,1,$1+$1,$8,$9*
0 Add four rect primitives between the rounded corners*
20,1,$1+$1,$2,$3,$4,$5,0*
20,1,$1+$1,$4,$5,$6,$7,0*
20,1,$1+$1,$6,$7,$8,$9,0*
20,1,$1+$1,$8,$9,$2,$3,0*%
G04 Aperture macros list end*
%ADD10RoundRect,0.237500X-0.250000X-0.237500X0.250000X-0.237500X0.250000X0.237500X-0.250000X0.237500X0*%
%ADD11RoundRect,0.237500X0.237500X-0.287500X0.237500X0.287500X-0.237500X0.287500X-0.237500X-0.287500X0*%
%ADD12RoundRect,0.187500X-0.312500X-0.187500X0.312500X-0.187500X0.312500X0.187500X-0.312500X0.187500X0*%
%ADD13RoundRect,0.150000X-0.150000X0.875000X-0.150000X-0.875000X0.150000X-0.875000X0.150000X0.875000X0*%
%ADD14RoundRect,0.237500X0.300000X0.237500X-0.300000X0.237500X-0.300000X-0.237500X0.300000X-0.237500X0*%
%ADD15RoundRect,0.237500X0.250000X0.237500X-0.250000X0.237500X-0.250000X-0.237500X0.250000X-0.237500X0*%
%ADD16RoundRect,0.150000X-0.587500X-0.150000X0.587500X-0.150000X0.587500X0.150000X-0.587500X0.150000X0*%
G04 APERTURE END LIST*
D10*
%TO.C,R6*%
X139192000Y-82867500D03*
X141017000Y-82867500D03*
%TD*%
%TO.C,R7*%
X139192000Y-85598000D03*
X141017000Y-85598000D03*
%TD*%
%TO.C,R14*%
X139192000Y-74676000D03*
X141017000Y-74676000D03*
%TD*%
%TO.C,R13*%
X139192000Y-71945500D03*
X141017000Y-71945500D03*
%TD*%
%TO.C,R11*%
X139192000Y-96520000D03*
X141017000Y-96520000D03*
%TD*%
%TO.C,R12*%
X139192000Y-99250500D03*
X141017000Y-99250500D03*
%TD*%
%TO.C,R10*%
X139192000Y-93789500D03*
X141017000Y-93789500D03*
%TD*%
%TO.C,R8*%
X139192000Y-88328500D03*
X141017000Y-88328500D03*
%TD*%
%TO.C,R9*%
X139192000Y-91059000D03*
X141017000Y-91059000D03*
%TD*%
D11*
%TO.C,D1*%
X92760085Y-70956500D03*
X92760085Y-69206500D03*
%TD*%
D12*
%TO.C,SW1*%
X150514800Y-73090800D03*
X156514800Y-73090800D03*
X150514800Y-76840800D03*
X156514800Y-76840800D03*
%TD*%
D13*
%TO.C,U1*%
X137668000Y-109954800D03*
X136398000Y-109954800D03*
X135128000Y-109954800D03*
X133858000Y-109954800D03*
X132588000Y-109954800D03*
X131318000Y-109954800D03*
X130048000Y-109954800D03*
X128778000Y-109954800D03*
X127508000Y-109954800D03*
X126238000Y-109954800D03*
X126238000Y-119254800D03*
X127508000Y-119254800D03*
X128778000Y-119254800D03*
X130048000Y-119254800D03*
X131318000Y-119254800D03*
X132588000Y-119254800D03*
X133858000Y-119254800D03*
X135128000Y-119254800D03*
X136398000Y-119254800D03*
X137668000Y-119254800D03*
%TD*%
%TO.C,U3*%
X97129600Y-109954800D03*
X95859600Y-109954800D03*
X94589600Y-109954800D03*
X93319600Y-109954800D03*
X92049600Y-109954800D03*
X90779600Y-109954800D03*
X89509600Y-109954800D03*
X88239600Y-109954800D03*
X86969600Y-109954800D03*
X85699600Y-109954800D03*
X85699600Y-119254800D03*
X86969600Y-119254800D03*
X88239600Y-119254800D03*
X89509600Y-119254800D03*
X90779600Y-119254800D03*
X92049600Y-119254800D03*
X93319600Y-119254800D03*
X94589600Y-119254800D03*
X95859600Y-119254800D03*
X97129600Y-119254800D03*
%TD*%
%TO.C,U2*%
X117398800Y-109954800D03*
X116128800Y-109954800D03*
X114858800Y-109954800D03*
X113588800Y-109954800D03*
X112318800Y-109954800D03*
X111048800Y-109954800D03*
X109778800Y-109954800D03*
X108508800Y-109954800D03*
X107238800Y-109954800D03*
X105968800Y-109954800D03*
X105968800Y-119254800D03*
X107238800Y-119254800D03*
X108508800Y-119254800D03*
X109778800Y-119254800D03*
X111048800Y-119254800D03*
X112318800Y-119254800D03*
X113588800Y-119254800D03*
X114858800Y-119254800D03*
X116128800Y-119254800D03*
X117398800Y-119254800D03*
%TD*%
%TO.C,U4*%
X157937200Y-109954800D03*
X156667200Y-109954800D03*
X155397200Y-109954800D03*
X154127200Y-109954800D03*
X152857200Y-109954800D03*
X151587200Y-109954800D03*
X150317200Y-109954800D03*
X149047200Y-109954800D03*
X147777200Y-109954800D03*
X146507200Y-109954800D03*
X146507200Y-119254800D03*
X147777200Y-119254800D03*
X149047200Y-119254800D03*
X150317200Y-119254800D03*
X151587200Y-119254800D03*
X152857200Y-119254800D03*
X154127200Y-119254800D03*
X155397200Y-119254800D03*
X156667200Y-119254800D03*
X157937200Y-119254800D03*
%TD*%
D14*
%TO.C,C3*%
X102462500Y-124000000D03*
X100737500Y-124000000D03*
%TD*%
%TO.C,C1*%
X142862500Y-124000000D03*
X141137500Y-124000000D03*
%TD*%
D10*
%TO.C,R5*%
X139192000Y-80137000D03*
X141017000Y-80137000D03*
%TD*%
%TO.C,R4*%
X139192000Y-77406500D03*
X141017000Y-77406500D03*
%TD*%
D15*
%TO.C,R1*%
X142912500Y-120000000D03*
X141087500Y-120000000D03*
%TD*%
%TO.C,R15*%
X162708600Y-120000000D03*
X160883600Y-120000000D03*
%TD*%
D14*
%TO.C,C2*%
X123037600Y-124000000D03*
X121312600Y-124000000D03*
%TD*%
D16*
%TO.C,Q1*%
X87200500Y-69154000D03*
X87200500Y-71054000D03*
X89075500Y-70104000D03*
%TD*%
D15*
%TO.C,R3*%
X102512500Y-120000000D03*
X100687500Y-120000000D03*
%TD*%
D14*
%TO.C,C4*%
X162609700Y-124000000D03*
X160884700Y-124000000D03*
%TD*%
D15*
%TO.C,R2*%
X123037600Y-120000000D03*
X121212600Y-120000000D03*
%TD*%
M02*
